# xmcd
#
# Track frame offsets:
#	150
#	13629
#	28161
#	42912
#	56493
#	69625
#	80486
#	95917
#	108087
#	120358
#	136050
#	146857
#	160378
#	173682
#	185938
#	197681
#	210352
#	222825
#	234085
#	248261
#	263104
#
# Disc length: 3659 seconds
#
# Revision: 0
# Processed by: cddbd v1.5.1PL0 Copyright (c) Steve Scherf et al.
# Submitted via: audiograbber 1.83.01
#
DISCID=210e4915
DTITLE=Ivon Curi - Farinhada a Francesa
DYEAR=1900
DGENRE=
TTITLE0=Adeus
TTITLE1=C'est si Bon
TTITLE2=Nego Meu Amor
TTITLE3=Doce Maezinha
TTITLE4=Pigalle
TTITLE5=Ta Fartando Coisa Em Mim
TTITLE6=Si Tu Partais
TTITLE7=E Vance
TTITLE8=Gauchita
TTITLE9=Douce France
TTITLE10=O Xhem-Nhem-Nhem
TTITLE11=Me Leva
TTITLE12=Joao Bobo
TTITLE13=Suspiro Que Vai e Vem
TTITLE14=Les Feuilles Mortes
TTITLE15=O Menino de Bracana
TTITLE16=Noite de Luar
TTITLE17=Farinhada
TTITLE18=La Vie En Rose
TTITLE19=Inteirinha
TTITLE20=Gosto Que Me Enrosco
EXTD=
EXTT0=
EXTT1=
EXTT2=
EXTT3=
EXTT4=
EXTT5=
EXTT6=
EXTT7=
EXTT8=
EXTT9=
EXTT10=
EXTT11=
EXTT12=
EXTT13=
EXTT14=
EXTT15=
EXTT16=
EXTT17=
EXTT18=
EXTT19=
EXTT20=
PLAYORDER=
